<?xml version="1.0" standalone="no"?>
<!DOCTYPE svg PUBLIC "-//W3C//DTD SVG 20010904//EN"
 "http://www.w3.org/TR/2001/REC-SVG-20010904/DTD/svg10.dtd">
<svg version="1.0" xmlns="http://www.w3.org/2000/svg"
 width="1600.000000pt" height="896.000000pt" viewBox="0 0 1600.000000 896.000000"
 preserveAspectRatio="xMidYMid meet">

<g transform="translate(0.000000,896.000000) scale(0.100000,-0.100000)"
fill="#000000" stroke="none">
<path d="M0 4480 l0 -4480 8000 0 8000 0 0 4480 0 4480 -8000 0 -8000 0 0
-4480z m9363 614 c94 -22 147 -45 221 -98 140 -100 242 -259 262 -405 l7 -51
-49 0 -49 0 -17 72 c-66 273 -369 455 -638 383 -196 -52 -353 -212 -393 -400
l-11 -55 -48 0 c-43 0 -48 2 -48 23 2 129 120 327 257 429 140 103 332 141
506 102z m2717 -24 c47 -12 95 -19 108 -17 21 4 22 2 22 -82 0 -47 3 -96 6
-108 12 -44 -11 -22 -38 36 -51 109 -159 164 -323 165 -89 1 -106 -2 -150 -25
-88 -45 -139 -150 -116 -237 24 -88 83 -131 298 -218 256 -104 332 -154 380
-251 53 -109 29 -251 -60 -350 -108 -118 -307 -152 -575 -97 -68 14 -135 23
-148 20 l-24 -6 0 122 1 123 30 -62 c65 -136 201 -200 400 -191 100 5 141 19
192 67 45 41 67 93 67 156 0 72 -17 111 -68 157 -50 45 -74 57 -270 138 -171
70 -252 118 -300 176 -91 110 -79 282 27 397 43 46 127 91 203 107 65 14 243
3 338 -20z m-7948 0 c118 -14 186 -41 252 -101 96 -88 128 -214 87 -349 -18
-60 -31 -81 -71 -120 -98 -95 -190 -120 -458 -120 l-183 0 3 -250 3 -250 -95
0 -95 0 0 600 0 600 235 0 c129 0 274 -5 322 -10z m881 -37 c-4 -27 -8 -239
-8 -473 l0 -425 29 -63 c53 -114 148 -173 279 -173 77 0 107 7 170 38 70 35
130 99 158 169 24 59 24 60 24 474 0 412 0 415 -22 453 -13 21 -23 40 -23 43
0 2 27 4 60 4 33 0 60 -2 60 -5 0 -3 -8 -18 -17 -32 -16 -24 -18 -70 -23 -468
l-5 -440 -27 -57 c-74 -158 -258 -245 -464 -219 -178 22 -281 89 -343 221
l-26 55 -5 455 c-3 250 -9 463 -14 473 -7 16 0 17 99 17 l106 0 -8 -47z m1767
22 c158 -50 241 -134 258 -264 16 -114 -14 -208 -87 -274 -52 -47 -92 -67
-168 -87 l-63 -15 56 -70 c31 -39 113 -144 182 -235 69 -91 139 -180 155 -197
l31 -33 -115 0 c-114 0 -114 0 -130 28 -8 15 -95 134 -193 265 l-177 237 -115
0 -114 0 1 -217 c0 -120 4 -239 8 -265 l8 -48 -102 0 -103 0 10 44 c5 26 8
278 6 601 l-3 557 300 -5 c249 -3 309 -7 355 -22z m1464 3 c13 -60 28 -170 23
-174 -2 -2 -16 11 -30 29 -37 49 -126 105 -195 122 -44 11 -100 15 -213 13
l-154 -3 0 -265 0 -265 170 1 c196 0 228 9 272 73 15 22 31 40 36 41 7 0 -1
-260 -8 -268 -2 -2 -10 11 -19 30 -9 18 -33 44 -53 58 -35 24 -44 25 -211 28
-138 3 -177 1 -184 -10 -4 -7 -8 -136 -7 -286 l1 -273 202 3 201 3 63 34 c35
19 84 57 109 85 l45 51 -6 -50 c-4 -27 -11 -74 -17 -102 l-10 -53 -388 0 -388
0 8 48 c10 61 10 1033 0 1094 -4 27 -6 50 -3 53 3 3 173 5 378 5 l374 0 4 -22z
m2058 8 c7 -7 67 -84 133 -170 66 -87 172 -224 235 -305 63 -82 169 -219 235
-304 l120 -156 3 442 c2 429 2 443 -18 469 -11 15 -20 30 -20 33 0 3 27 5 60
5 l59 0 -22 -37 -22 -38 0 -565 c0 -564 0 -565 -21 -568 -21 -3 -37 16 -438
533 -77 99 -184 237 -239 308 -54 70 -101 127 -103 127 -2 0 -4 -205 -4 -455
l0 -456 24 -24 c13 -13 22 -25 21 -27 -2 -2 -31 -1 -64 0 l-60 4 22 30 22 30
2 551 c0 304 2 560 2 570 1 21 53 24 73 3z m2185 -18 c20 -16 16 -75 -7 -98
-27 -27 -66 -25 -95 5 -27 26 -31 54 -14 86 20 38 75 41 116 7z m-3247 -251
c-16 -108 -30 -205 -30 -217 0 -19 6 -20 130 -20 72 0 130 -4 130 -8 0 -9
-286 -542 -296 -551 -7 -6 -5 7 25 194 11 66 22 144 26 173 l7 52 -131 0 -131
0 148 289 c81 159 148 288 150 286 1 -1 -11 -90 -28 -198z m-533 -432 c28
-133 129 -268 254 -342 60 -36 189 -73 254 -73 132 0 291 66 383 158 65 65
124 170 143 255 l12 57 50 0 49 0 -7 -47 c-4 -27 -18 -77 -32 -113 -75 -189
-206 -313 -403 -381 -86 -29 -265 -32 -355 -5 -170 51 -321 176 -393 326 -36
75 -62 163 -62 205 0 11 13 15 48 15 l48 0 11 -55z"/>
<path d="M3760 4729 l0 -321 173 4 c198 4 223 12 294 92 56 64 76 134 71 244
-3 72 -9 96 -33 140 -65 120 -165 162 -385 162 l-120 0 0 -321z"/>
<path d="M6307 5043 c-9 -8 -9 -550 0 -582 l6 -23 166 5 c100 3 182 10 206 18
63 21 140 103 159 168 57 193 -36 364 -223 407 -57 14 -302 19 -314 7z"/>
<path d="M12425 5050 c17 -7 17 -9 3 -9 -10 -1 -18 -5 -18 -11 0 -14 23 -13
38 2 9 9 12 5 12 -20 0 -18 0 -35 1 -39 0 -4 -4 -9 -9 -11 -6 -2 -9 5 -8 14 2
26 -19 27 -32 2 -9 -20 -11 -17 -11 25 -1 29 -5 46 -11 42 -5 -3 -10 -23 -10
-44 0 -31 5 -40 25 -49 14 -7 30 -12 35 -12 17 0 50 44 50 66 0 26 -35 54 -65
53 -20 0 -20 0 0 -9z"/>
</g>
</svg>
